<svg width="25" height="24" viewBox="0 0 25 24" fill="none" xmlns="http://www.w3.org/2000/svg">
<path d="M8.5 6.50067L21.5 6.50139M8.5 12.5007L21.5 12.5015M8.5 18.5007L21.5 18.5015M4 6.5H4.01M4 12.5H4.01M4 18.5H4.01M4.5 6.5C4.5 6.77614 4.27614 7 4 7C3.72386 7 3.5 6.77614 3.5 6.5C3.5 6.22386 3.72386 6 4 6C4.27614 6 4.5 6.22386 4.5 6.5ZM4.5 12.5C4.5 12.7761 4.27614 13 4 13C3.72386 13 3.5 12.7761 3.5 12.5C3.5 12.2239 3.72386 12 4 12C4.27614 12 4.5 12.2239 4.5 12.5ZM4.5 18.5C4.5 18.7761 4.27614 19 4 19C3.72386 19 3.5 18.7761 3.5 18.5C3.5 18.2239 3.72386 18 4 18C4.27614 18 4.5 18.2239 4.5 18.5Z" stroke="white" stroke-linecap="round" stroke-linejoin="round"/>
</svg>
