<svg width="11" height="12" viewBox="0 0 11 12" fill="none" xmlns="http://www.w3.org/2000/svg">
<path d="M7.54574 3.89552C7.64195 3.80015 7.77184 3.74647 7.90731 3.7461C8.04279 3.74572 8.17297 3.79868 8.26971 3.89352C8.36645 3.98837 8.42198 4.11747 8.42429 4.25293C8.4266 4.38839 8.3755 4.51931 8.28205 4.6174L5.53755 8.04802C5.49038 8.09883 5.43345 8.1396 5.37017 8.1679C5.30688 8.1962 5.23854 8.21145 5.16922 8.21273C5.09991 8.21401 5.03105 8.20131 4.96676 8.17537C4.90247 8.14943 4.84407 8.1108 4.79505 8.06177L2.97661 6.24265C2.92595 6.19544 2.88532 6.13852 2.85714 6.07527C2.82896 6.01202 2.8138 5.94374 2.81258 5.87451C2.81136 5.80527 2.82409 5.7365 2.85003 5.6723C2.87596 5.60809 2.91456 5.54977 2.96352 5.50081C3.01249 5.45185 3.07081 5.41325 3.13501 5.38731C3.19922 5.36138 3.26799 5.34864 3.33722 5.34987C3.40645 5.35109 3.47473 5.36624 3.53798 5.39442C3.60123 5.4226 3.65816 5.46324 3.70536 5.5139L5.14499 6.95283L7.53267 3.91065C7.53693 3.90532 7.54153 3.90027 7.54642 3.89552H7.54574Z" fill="white"/>
</svg>
