<svg width="42" height="42" viewBox="0 0 42 42" fill="none" xmlns="http://www.w3.org/2000/svg">
<path d="M21.3359 16.7606C18.9901 16.7606 17.0979 18.6532 17.0979 20.9996C17.0979 23.3459 18.9901 25.2385 21.3359 25.2385C23.6817 25.2385 25.5739 23.3459 25.5739 20.9996C25.5739 18.6532 23.6817 16.7606 21.3359 16.7606ZM21.3359 23.7554C19.82 23.7554 18.5806 22.5195 18.5806 20.9996C18.5806 19.4796 19.8163 18.2437 21.3359 18.2437C22.8555 18.2437 24.0911 19.4796 24.0911 20.9996C24.0911 22.5195 22.8518 23.7554 21.3359 23.7554V23.7554ZM26.7357 16.5872C26.7357 17.1369 26.2931 17.576 25.7472 17.576C25.1977 17.576 24.7587 17.1333 24.7587 16.5872C24.7587 16.0412 25.2014 15.5985 25.7472 15.5985C26.2931 15.5985 26.7357 16.0412 26.7357 16.5872ZM29.5426 17.5907C29.4799 16.2663 29.1775 15.0931 28.2074 14.1265C27.2411 13.1599 26.0681 12.8574 24.744 12.791C23.3793 12.7135 19.2888 12.7135 17.9241 12.791C16.6037 12.8537 15.4307 13.1563 14.4607 14.1228C13.4906 15.0894 13.1919 16.2626 13.1255 17.587C13.048 18.952 13.048 23.0434 13.1255 24.4084C13.1882 25.7329 13.4906 26.9061 14.4607 27.8726C15.4307 28.8392 16.6 29.1417 17.9241 29.2081C19.2888 29.2856 23.3793 29.2856 24.744 29.2081C26.0681 29.1454 27.2411 28.8429 28.2074 27.8726C29.1738 26.9061 29.4762 25.7329 29.5426 24.4084C29.6201 23.0434 29.6201 18.9557 29.5426 17.5907V17.5907ZM27.7796 25.8731C27.4919 26.5962 26.9349 27.1532 26.2083 27.4447C25.1202 27.8763 22.5383 27.7767 21.3359 27.7767C20.1335 27.7767 17.5479 27.8726 16.4635 27.4447C15.7406 27.1569 15.1836 26.5998 14.8922 25.8731C14.4607 24.7847 14.5603 22.2023 14.5603 20.9996C14.5603 19.7969 14.4644 17.2107 14.8922 16.1261C15.1799 15.403 15.7369 14.8459 16.4635 14.5545C17.5516 14.1228 20.1335 14.2224 21.3359 14.2224C22.5383 14.2224 25.1239 14.1265 26.2083 14.5545C26.9312 14.8422 27.4882 15.3993 27.7796 16.1261C28.2111 17.2144 28.1115 19.7969 28.1115 20.9996C28.1115 22.2023 28.2111 24.7884 27.7796 25.8731Z" fill="black"/>
</svg>
