<svg width="42" height="42" viewBox="0 0 42 42" fill="none" xmlns="http://www.w3.org/2000/svg">
<g clip-path="url(#clip0_2402_7422)">
<path d="M27.7497 13.2349C27.2713 12.7942 25.3348 11.3889 21.0174 11.3701C21.0174 11.3701 15.9277 11.0649 13.4488 13.3404C12.07 14.7193 11.584 16.7424 11.5312 19.2476C11.4785 21.7529 11.4144 26.4471 15.939 27.7204H15.9428L15.939 29.6644C15.939 29.6644 15.9089 30.4518 16.4288 30.61C17.0542 30.8059 17.4234 30.2069 18.0224 29.5627C18.3501 29.2085 18.8022 28.6887 19.1451 28.2931C22.2418 28.553 24.619 27.9578 24.8903 27.8711C25.5157 27.6677 29.0532 27.2156 29.6259 22.5215C30.2211 17.6767 29.3395 14.6176 27.7497 13.2349V13.2349ZM28.2734 22.1673C27.7874 26.0854 24.9204 26.3341 24.393 26.5036C24.167 26.5752 22.0761 27.0951 19.4502 26.9255C19.4502 26.9255 17.4912 29.2877 16.8809 29.9017C16.6812 30.1014 16.4627 30.0826 16.4665 29.687C16.4665 29.4271 16.4815 26.4584 16.4815 26.4584C16.4778 26.4584 16.4778 26.4584 16.4815 26.4584C12.6464 25.396 12.8724 21.3988 12.9138 19.3079C12.9553 17.217 13.3509 15.5029 14.5187 14.3501C16.6172 12.4476 20.9383 12.7301 20.9383 12.7301C24.5889 12.7452 26.337 13.8453 26.7438 14.2145C28.0888 15.3673 28.7744 18.125 28.2734 22.1673V22.1673ZM23.0367 19.1233C23.0518 19.4473 22.5658 19.4699 22.5508 19.1459C22.5093 18.3171 22.1213 17.914 21.3226 17.8688C20.9986 17.85 21.0287 17.364 21.349 17.3828C22.4001 17.4393 22.984 18.0421 23.0367 19.1233ZM23.8015 19.549C23.8392 17.9517 22.8408 16.7009 20.9459 16.5615C20.6256 16.5389 20.6595 16.0529 20.9798 16.0755C23.1648 16.2338 24.329 17.7369 24.2875 19.5603C24.2837 19.8843 23.794 19.8693 23.8015 19.549V19.549ZM25.5722 20.0539C25.5759 20.3779 25.0862 20.3816 25.0862 20.0576C25.0636 16.9872 23.0179 15.3145 20.5352 15.2957C20.215 15.2919 20.215 14.8097 20.5352 14.8097C23.3118 14.8285 25.5458 16.7461 25.5722 20.0539V20.0539ZM25.1465 23.7496V23.7572C24.7396 24.473 23.9786 25.2641 23.195 25.0117L23.1874 25.0004C22.3925 24.7781 20.5201 23.8137 19.3372 22.8718C18.7269 22.3896 18.1693 21.8208 17.7398 21.2745C17.3518 20.7885 16.96 20.2121 16.5795 19.5189C15.777 18.0685 15.6 17.4205 15.6 17.4205C15.3476 16.6369 16.1349 15.8759 16.8545 15.469H16.862C17.2086 15.2881 17.5402 15.3484 17.7624 15.6159C17.7624 15.6159 18.2296 16.1735 18.4293 16.4485C18.6176 16.7047 18.87 17.1153 19.0019 17.3451C19.2317 17.7558 19.0886 18.1739 18.8625 18.3472L18.4104 18.7089C18.1806 18.8935 18.2108 19.2363 18.2108 19.2363C18.2108 19.2363 18.8813 21.7718 21.3866 22.4122C21.3866 22.4122 21.7295 22.4424 21.9141 22.2126L22.2757 21.7605C22.449 21.5344 22.8672 21.3913 23.2779 21.6211C23.8317 21.9338 24.5362 22.4198 25.0033 22.8605C25.267 23.0753 25.3273 23.403 25.1465 23.7496Z" fill="black"/>
</g>
<defs>
<clipPath id="clip0_2402_7422">
<rect width="19.2889" height="19.2889" fill="white" transform="translate(11.0225 11.355)"/>
</clipPath>
</defs>
</svg>
