<svg width="42" height="42" viewBox="0 0 42 42" fill="none" xmlns="http://www.w3.org/2000/svg">
<path d="M29.8717 17.6137C30.0042 17.1831 29.8717 16.8662 29.2344 16.8662H27.1253C26.5882 16.8662 26.3411 17.1383 26.2086 17.4414C26.2086 17.4414 25.1344 19.9593 23.6161 21.592C23.1255 22.0639 22.8999 22.2154 22.6314 22.2154C22.4989 22.2154 22.2948 22.0639 22.2948 21.6333V17.6137C22.2948 17.097 22.1444 16.8662 21.7004 16.8662H18.3846C18.048 16.8662 17.8474 17.1073 17.8474 17.3312C17.8474 17.8203 18.6066 17.934 18.6854 19.3118V22.3015C18.6854 22.956 18.5636 23.0765 18.295 23.0765C17.5789 23.0765 15.8386 20.5483 14.8074 17.655C14.5997 17.0935 14.3956 16.8662 13.8549 16.8662H11.7458C11.1442 16.8662 11.0225 17.1383 11.0225 17.4414C11.0225 17.9788 11.7386 20.6482 14.3562 24.1753C16.1 26.583 18.5564 27.8884 20.7909 27.8884C22.1337 27.8884 22.2984 27.5991 22.2984 27.0997C22.2984 24.7988 22.1766 24.5818 22.8498 24.5818C23.1613 24.5818 23.6985 24.7333 24.9517 25.8941C26.3841 27.2719 26.6204 27.8884 27.4225 27.8884H29.5316C30.1331 27.8884 30.4375 27.5991 30.2621 27.0273C29.861 25.8252 27.1503 23.3521 27.0286 23.1868C26.7171 22.801 26.8066 22.6288 27.0286 22.2843C27.0322 22.2809 29.6068 18.7951 29.8717 17.6137V17.6137Z" fill="black"/>
</svg>
