<svg width="42" height="42" viewBox="0 0 42 42" fill="none" xmlns="http://www.w3.org/2000/svg">
<path d="M28.0893 14.1579C26.2853 12.3496 23.8828 11.355 21.3296 11.355C16.0596 11.355 11.7713 15.6433 11.7713 20.9133C11.7713 22.5968 12.2104 24.2415 13.0457 25.6925L11.6895 30.6439L16.7571 29.3135C18.1521 30.0755 19.7236 30.476 21.3253 30.476H21.3296C26.5953 30.476 30.9783 26.1876 30.9783 20.9176C30.9783 18.3644 29.8933 15.9662 28.0893 14.1579V14.1579ZM21.3296 28.8657C19.9001 28.8657 18.5008 28.4825 17.2824 27.7591L16.9939 27.5869L13.9886 28.3748L14.7895 25.4428L14.6 25.1414C13.8035 23.8755 13.3858 22.416 13.3858 20.9133C13.3858 16.5346 16.9508 12.9696 21.3339 12.9696C23.4565 12.9696 25.45 13.7962 26.9483 15.2989C28.4467 16.8015 29.3681 18.795 29.3638 20.9176C29.3638 25.3007 25.7083 28.8657 21.3296 28.8657V28.8657ZM25.6868 22.9154C25.45 22.7948 24.2746 22.2179 24.055 22.1404C23.8354 22.0586 23.6761 22.0198 23.5168 22.261C23.3575 22.5021 22.9011 23.036 22.759 23.1996C22.6213 23.3589 22.4792 23.3804 22.2424 23.2598C20.8388 22.558 19.9174 22.0069 18.9917 20.4182C18.7463 19.9962 19.2371 20.0264 19.6935 19.1136C19.771 18.9543 19.7322 18.8165 19.672 18.696C19.6117 18.5754 19.1338 17.4 18.9357 16.9221C18.742 16.4571 18.5439 16.5216 18.3975 16.513C18.2597 16.5044 18.1004 16.5044 17.9411 16.5044C17.7818 16.5044 17.5235 16.5647 17.3039 16.8015C17.0843 17.0426 16.4686 17.6196 16.4686 18.795C16.4686 19.9704 17.3254 21.1071 17.4417 21.2664C17.5622 21.4257 19.1251 23.8368 21.5233 24.8744C23.0389 25.5289 23.6331 25.5848 24.3908 25.4729C24.8515 25.404 25.8031 24.896 26.0011 24.3362C26.1992 23.7765 26.1992 23.2986 26.1389 23.1996C26.0829 23.0919 25.9236 23.0316 25.6868 22.9154Z" fill="black"/>
</svg>
