<svg width="42" height="42" viewBox="0 0 42 42" fill="none" xmlns="http://www.w3.org/2000/svg">
<g clip-path="url(#clip0_2402_7414)">
<path d="M29.7621 16.5824C29.5517 15.7904 28.932 15.1666 28.1451 14.955C26.7189 14.5703 20.9998 14.5703 20.9998 14.5703C20.9998 14.5703 15.2808 14.5703 13.8545 14.955C13.0677 15.1667 12.448 15.7904 12.2376 16.5824C11.8555 18.0179 11.8555 21.0129 11.8555 21.0129C11.8555 21.0129 11.8555 24.008 12.2376 25.4435C12.448 26.2355 13.0677 26.8333 13.8545 27.0449C15.2808 27.4296 20.9998 27.4296 20.9998 27.4296C20.9998 27.4296 26.7189 27.4296 28.1451 27.0449C28.932 26.8333 29.5517 26.2355 29.7621 25.4435C30.1442 24.008 30.1442 21.0129 30.1442 21.0129C30.1442 21.0129 30.1442 18.0179 29.7621 16.5824V16.5824ZM19.1294 23.7322V18.2936L23.9094 21.013L19.1294 23.7322V23.7322Z" fill="black"/>
</g>
<defs>
<clipPath id="clip0_2402_7414">
<rect width="19.2889" height="19.2889" fill="white" transform="translate(11.3555 11.355)"/>
</clipPath>
</defs>
</svg>
