<svg width="50" height="50" viewBox="0 0 50 50" fill="none" xmlns="http://www.w3.org/2000/svg">
<path d="M44.6875 1.91051e-07H5.3125C5.23041 -6.40203e-05 5.1491 0.0160583 5.07325 0.0474447C4.99739 0.0788312 4.92846 0.124866 4.87042 0.182915C4.81237 0.240965 4.76633 0.30989 4.73494 0.385747C4.70356 0.461605 4.68744 0.542906 4.6875 0.625V49.375C4.68744 49.4571 4.70356 49.5384 4.73494 49.6143C4.76633 49.6901 4.81237 49.759 4.87042 49.8171C4.92846 49.8751 4.99739 49.9212 5.07325 49.9526C5.1491 49.9839 5.23041 50.0001 5.3125 50H44.6875C44.7696 50.0001 44.8509 49.9839 44.9268 49.9526C45.0026 49.9212 45.0715 49.8751 45.1296 49.8171C45.1876 49.759 45.2337 49.6901 45.2651 49.6143C45.2964 49.5384 45.3126 49.4571 45.3125 49.375V0.625C45.3126 0.542906 45.2964 0.461605 45.2651 0.385747C45.2337 0.30989 45.1876 0.240965 45.1296 0.182915C45.0715 0.124866 45.0026 0.0788312 44.9268 0.0474447C44.8509 0.0160583 44.7696 -6.40203e-05 44.6875 1.91051e-07ZM43.1787 1.24939L37.8806 6.54749H12.1194L6.82129 1.24939H43.1787ZM37.515 7.79749V42.2019H12.4856V7.79749H37.515ZM5.9375 2.13379L11.2356 7.43188V42.5687L5.9375 47.8668V2.13379ZM6.82251 48.75L12.1194 43.4519H37.8812L43.1787 48.75H6.82251ZM44.0625 47.8662L38.7644 42.5681V7.43127L44.0625 2.13318V47.8662Z" fill="black"/>
</svg>
