<svg width="50" height="50" viewBox="0 0 50 50" fill="none" xmlns="http://www.w3.org/2000/svg">
<path d="M41.6267 27.3738L42.5665 27.3291C42.8089 27.3179 43.0375 27.2129 43.2038 27.0361L44.1904 25.9915C44.3221 25.8515 44.4077 25.6745 44.4358 25.4843C44.4638 25.2942 44.433 25.1 44.3474 24.9279L43.6571 23.5617L45.1897 22.6186C45.3872 22.4972 45.5327 22.3069 45.598 22.0845L46.2186 19.9745C46.2833 19.7543 46.265 19.518 46.1672 19.3104C46.0695 19.1028 45.8991 18.9381 45.6882 18.8476L44.7574 18.4547L44.8813 17.734L45.9455 17.2859C46.0709 17.2333 46.1834 17.1539 46.275 17.0534C46.3666 16.9529 46.4353 16.8336 46.4761 16.7038L46.626 16.2296L47.8508 17.6772C47.938 17.7812 48.047 17.8648 48.1699 17.9223C48.2929 17.9798 48.4269 18.0098 48.5627 18.0101C49.0823 18.0101 49.505 17.5889 49.505 17.0711L49.5049 15.4179L49.4668 13.6285C49.4415 12.4377 48.4534 11.469 47.2641 11.469C47.1758 11.469 47.0864 11.4743 46.9983 11.4849L37.85 12.5827L37.9127 12.4123C37.9637 12.2733 37.9811 12.1243 37.9637 11.9773C37.9462 11.8303 37.8942 11.6895 37.812 11.5663C37.7295 11.4434 37.6192 11.3417 37.49 11.2695C37.3608 11.1972 37.2164 11.1565 37.0685 11.1506L35.905 11.1058C35.7535 11.1006 35.6029 11.1319 35.466 11.1971C35.3291 11.2623 35.2099 11.3594 35.1184 11.4803L32.2616 15.2907L29.7423 16.5537L27.6655 15.4837C27.5326 15.4155 27.3855 15.3798 27.2361 15.3796C26.9778 15.3796 26.7281 15.4877 26.5516 15.6761L24.6257 17.7304C24.5061 17.8571 24.4244 18.0147 24.3898 18.1854C24.3552 18.3561 24.369 18.5331 24.4298 18.6964L24.7775 19.6278L23.5447 20.7959L22.3696 21.4763C22.2063 21.5701 22.0751 21.7112 21.9934 21.8809C21.9117 22.0507 21.8834 22.2412 21.9121 22.4274L22.0103 23.0818C22.0785 23.5374 22.4775 23.8812 22.9381 23.881C23.0708 23.8811 23.202 23.8528 23.3229 23.7981L24.3274 23.346L25.5801 22.8151L26.8632 23.7132C26.9709 23.789 27.0937 23.8411 27.2231 23.8658L29.1846 24.2397V24.7246L25.1258 24.1158C24.9624 24.091 24.7954 24.11 24.6417 24.1708L21.995 25.2156C21.8523 25.2718 21.7256 25.3623 21.626 25.4789C21.5264 25.5956 21.4569 25.735 21.4238 25.8847L20.9063 28.2135C20.8704 28.3757 20.8781 28.5446 20.9287 28.7028C20.9793 28.8611 21.0711 29.003 21.1945 29.1142L22.4143 30.2123C22.5118 30.2998 22.6265 30.366 22.751 30.4066C22.8756 30.4472 23.0072 30.4613 23.1376 30.4481L25.4928 30.1989L25.5606 33.7241C25.5623 33.8103 25.5758 33.8958 25.6008 33.9783L26.0304 35.396C26.2941 36.2664 27.0824 36.8512 27.992 36.8512C28.7587 36.8512 29.4552 36.4289 29.8096 35.749L33.0635 29.5068C33.1576 29.3251 33.19 29.1177 33.1557 28.9159C33.1213 28.7142 33.0222 28.5291 32.8732 28.3887L32.4492 27.9913L33.1089 27.7715C33.2609 27.7213 33.3974 27.633 33.5053 27.5149C33.6133 27.3967 33.689 27.2528 33.7252 27.097C33.7625 26.9414 33.7591 26.7788 33.7154 26.6249C33.6717 26.471 33.5891 26.331 33.4755 26.2182L32.5072 25.2593L32.5715 25.178L34.5981 26.4848L36.2306 28.8429C36.3168 28.9675 36.432 29.0694 36.5662 29.1398C36.7004 29.2102 36.8497 29.247 37.0012 29.247C37.1737 29.2475 37.3429 29.2002 37.4902 29.1105C37.6375 29.0208 37.7571 28.892 37.8358 28.7386L38.5634 27.3085L40.1967 28.469C40.3546 28.5823 40.544 28.6435 40.7384 28.6438C40.8762 28.6437 41.0123 28.6133 41.1371 28.5549C41.2619 28.4965 41.3723 28.4115 41.4607 28.3058C41.5483 28.2013 41.6119 28.079 41.6471 27.9473C41.6822 27.8156 41.6881 27.6778 41.6643 27.5436L41.6267 27.3738ZM28.9714 35.3116C28.8783 35.491 28.7377 35.6413 28.5649 35.7461C28.3921 35.8508 28.1938 35.906 27.9918 35.9056C27.7545 35.9066 27.5232 35.8308 27.3327 35.6894C27.1421 35.548 27.0024 35.3487 26.9346 35.1213L26.5054 33.7056L26.4376 30.1802C26.435 30.0505 26.4056 29.9228 26.3512 29.805C26.2968 29.6872 26.2186 29.5819 26.1216 29.4958C26.0243 29.4101 25.9103 29.3454 25.7868 29.3056C25.6634 29.2659 25.533 29.2521 25.404 29.265L23.0464 29.5092L21.8288 28.4182L22.342 26.0942L24.9851 25.0499L29.3953 25.7115L31.1546 28.001C31.1949 28.0548 32.2252 29.0695 32.2252 29.0695L28.9714 35.3116ZM40.8944 26.7802C40.8112 26.8841 40.7511 27.0044 40.718 27.1332C40.6849 27.262 40.6795 27.3964 40.7023 27.5275L40.73 27.6879L39.1109 26.5375C38.9525 26.4245 38.7628 26.3638 38.5683 26.364C38.3958 26.3636 38.2265 26.4108 38.0792 26.5006C37.9319 26.5903 37.8124 26.7191 37.7337 26.8726L37.0034 28.2979L35.3754 25.9463C35.3054 25.845 35.216 25.7586 35.1125 25.692L33.084 24.3833C32.9325 24.2853 32.7559 24.2333 32.5755 24.2333C32.3077 24.2333 32.0522 24.3482 31.8742 24.5482L31.8008 24.6308C31.6421 24.8097 31.5576 25.0425 31.5646 25.2815C31.5717 25.5206 31.6696 25.748 31.8386 25.9173L32.7991 26.8779L31.7241 27.2412L30.1295 25.1176V24.2391C30.1292 24.0214 30.0533 23.8104 29.9147 23.6424C29.7761 23.4745 29.5835 23.3598 29.3698 23.3181L27.4052 22.9384L26.1219 22.0402C25.9916 21.9499 25.8408 21.8938 25.6831 21.877C25.5255 21.8602 25.3662 21.8832 25.2198 21.944L23.9498 22.4789L22.9448 22.941L22.8432 22.2937L24.0172 21.6138C24.0809 21.5771 24.1399 21.533 24.1933 21.4825L25.4273 20.3135C25.5606 20.1874 25.6541 20.0249 25.6959 19.8461C25.7377 19.6673 25.7261 19.4802 25.6625 19.308L25.315 18.3762L27.2326 16.3234L29.3094 17.3934C29.4423 17.4617 29.5895 17.4973 29.7388 17.4975C29.8844 17.4973 30.028 17.4634 30.1584 17.3985L32.6848 16.1353C32.8147 16.07 32.9277 15.9756 33.0151 15.8595L35.8686 12.0501L37.0257 12.0856L36.9589 12.2667C36.9067 12.4084 36.8895 12.5606 36.9087 12.7104C36.9279 12.8602 36.983 13.0031 37.0693 13.1271C37.2663 13.4096 37.598 13.5648 37.9509 13.5224L47.1107 12.4232C47.1617 12.4171 47.2133 12.414 47.264 12.414C47.943 12.414 48.5073 12.9678 48.5218 13.6485L48.5597 15.4279L48.5595 17.0518L47.3391 15.6094C47.2514 15.5053 47.1421 15.4216 47.0187 15.3642C46.8953 15.3067 46.7609 15.277 46.6248 15.2769C46.425 15.2762 46.2301 15.3394 46.0688 15.4574C45.9075 15.5755 45.7883 15.742 45.7285 15.9327L45.5788 16.4147L44.5145 16.8628C44.3698 16.9234 44.2426 17.0194 44.1448 17.142C44.047 17.2646 43.9816 17.4099 43.9547 17.5644L43.8265 18.2902C43.7891 18.4987 43.8236 18.7136 43.9243 18.8999C44.025 19.0862 44.186 19.2327 44.3808 19.3156L45.3118 19.7077L44.6941 21.8137L43.1616 22.7568C42.961 22.8789 42.8138 23.0721 42.7494 23.298C42.685 23.5239 42.7082 23.7657 42.8143 23.9752L43.5032 25.3426L42.5213 26.3851L41.5815 26.4297C41.4487 26.4362 41.3187 26.4707 41.2003 26.5312C41.0818 26.5916 40.9775 26.6765 40.8944 26.7802ZM49.8924 35.005L48.7914 32.9132C48.7119 32.7618 48.5925 32.635 48.4461 32.5467C48.2997 32.4584 48.1319 32.4119 47.9609 32.4122C47.8081 32.4121 47.6576 32.4494 47.5226 32.5208C47.3876 32.5922 47.272 32.6956 47.1861 32.8219L46.8988 32.4627C46.8111 32.3526 46.6996 32.2638 46.5728 32.2028C46.4459 32.1419 46.3068 32.1104 46.1661 32.1108C45.9961 32.1108 45.8294 32.157 45.6837 32.2445L43.0793 33.8072C42.9561 33.8815 42.8516 33.9831 42.7736 34.104C42.6957 34.225 42.6465 34.3622 42.6297 34.505L42.408 36.4454C42.3931 36.5767 42.406 36.7096 42.4459 36.8355C42.4859 36.9614 42.5519 37.0775 42.6398 37.1761C42.7407 37.2897 42.8679 37.377 43.0102 37.4304C43.1524 37.4838 43.3056 37.5017 43.4564 37.4826L45.6621 37.2017L46.0115 38.0317C46.0829 38.202 46.203 38.3473 46.3568 38.4495C46.5106 38.5516 46.6912 38.606 46.8759 38.6057H46.876C46.9297 38.6057 46.9838 38.601 47.0369 38.5918L48.2478 38.3813C48.3946 38.3557 48.5331 38.2955 48.652 38.2059C48.771 38.1162 48.8669 37.9996 48.9319 37.8656L49.9069 35.8506C49.9705 35.7182 50.0023 35.5729 49.9998 35.4261C49.9972 35.2793 49.9605 35.1351 49.8924 35.005ZM48.086 37.4501L46.8804 37.6597L46.5331 36.8348C46.454 36.6461 46.3153 36.4886 46.1381 36.3863C45.961 36.2839 45.7552 36.2425 45.5522 36.2682L43.3471 36.5526L43.5655 34.6175L46.161 33.0531L46.4543 33.4198C46.542 33.5299 46.6533 33.6187 46.7801 33.6797C46.9069 33.7406 47.0459 33.7721 47.1866 33.7717C47.3391 33.7719 47.4893 33.7348 47.6242 33.6637C47.7591 33.5926 47.8747 33.4897 47.9608 33.3638L49.0562 35.4388L48.086 37.4501ZM18.1311 31.3084L13.6774 28.4229C13.3613 28.2177 12.9796 28.139 12.6082 28.2025C12.2367 28.2659 11.9028 28.467 11.6729 28.7655L10.674 28.2063L8.89004 25.6668H9.79996C10.0173 25.6666 10.2278 25.5912 10.3958 25.4533L13.779 22.6714L15.6619 21.6043C15.7754 21.5399 15.8743 21.4525 15.9522 21.3477C16.0301 21.2429 16.0853 21.1231 16.1143 20.9958C16.1431 20.8684 16.145 20.7364 16.12 20.6083C16.0949 20.4801 16.0435 20.3586 15.9688 20.2514L14.3018 17.8617C14.2131 17.7344 14.0942 17.6312 13.9558 17.5612C13.8174 17.4912 13.6637 17.4566 13.5087 17.4606C13.3536 17.4643 13.2019 17.5065 13.0672 17.5835C12.9325 17.6604 12.819 17.7695 12.737 17.9012L11.8777 19.2931L10.8925 18.1852L12.8505 16.7454C13.0263 16.6159 13.1514 16.4292 13.2044 16.2175C13.2575 16.0057 13.235 15.7821 13.141 15.585L12.6583 14.5755C12.6023 14.4588 12.5229 14.355 12.4249 14.2704C12.327 14.1858 12.2127 14.1223 12.0891 14.0839C11.9655 14.0458 11.8353 14.0337 11.7068 14.0482C11.5782 14.0627 11.4541 14.1037 11.3421 14.1684L10.4886 14.6658L6.63176 13.0339L3.86158 11.4715C3.69617 11.379 3.50675 11.3385 3.318 11.3553C3.12925 11.372 2.94993 11.4452 2.80339 11.5654L1.33618 12.7774C1.20727 12.8839 1.10917 13.0229 1.05205 13.18L0.0562391 15.9187C0.00558349 16.0585 -0.0111912 16.2083 0.00729211 16.3559C0.0257754 16.5034 0.0789896 16.6445 0.162566 16.7675C0.246495 16.8903 0.358328 16.9914 0.488896 17.0626C0.619464 17.1338 0.765048 17.173 0.913711 17.1771L3.02726 17.227L4.36876 20.5437L4.14973 23.8284C4.1368 24.0287 4.18803 24.2279 4.29599 24.3971L6.09965 27.2106C6.20743 27.3795 6.3667 27.5092 6.55391 27.5805L10.0234 28.9084C10.0548 28.9385 10.0898 28.9634 10.1269 28.9832L11.1412 29.5511L10.5965 30.3682C10.5011 30.5107 10.4468 30.6767 10.4394 30.848C10.432 31.0193 10.4718 31.1894 10.5545 31.3396L11.6961 33.4193L11.5473 38.4817C11.5411 38.699 11.6103 38.9117 11.7432 39.0837L12.6641 40.2731C12.8436 40.505 13.1122 40.638 13.4012 40.638C13.5278 40.6378 13.6531 40.6124 13.7698 40.5634C13.8866 40.5143 13.9924 40.4425 14.0812 40.3522C14.2566 40.1725 14.3498 39.9326 14.3437 39.6766L14.3014 37.9954L17.7607 34.6833C17.8849 34.5644 17.974 34.4137 18.0182 34.2475L18.5276 32.3376C18.5789 32.1462 18.5682 31.9434 18.4969 31.7584C18.4257 31.5735 18.2976 31.4159 18.1311 31.3084ZM6.89545 26.7006L5.09285 23.8912L5.31189 20.6065C5.32109 20.4653 5.29844 20.3238 5.24561 20.1925L3.90352 16.8725C3.835 16.7031 3.71846 16.5573 3.56822 16.4532C3.41798 16.3491 3.2406 16.2911 3.05786 16.2864L0.947735 16.2323L1.938 13.5061L3.39728 12.2948L6.16747 13.8574C6.19877 13.875 6.23103 13.8909 6.26281 13.9042L10.1205 15.5364C10.2543 15.5925 10.3993 15.6169 10.5442 15.6079C10.6891 15.5989 10.8299 15.5566 10.9557 15.4843L11.8057 14.9835L12.2906 15.9842L10.3325 17.4239C10.1211 17.5794 9.98368 17.8181 9.95556 18.079C9.92744 18.3399 10.0107 18.6025 10.184 18.7994L11.1682 19.9178C11.2642 20.0281 11.385 20.1142 11.5207 20.1689C11.6563 20.2237 11.803 20.2457 11.9487 20.233C12.0946 20.2217 12.2357 20.1762 12.3607 20.1001C12.4856 20.0241 12.5909 19.9196 12.6679 19.7952L13.5328 18.4114L15.1961 20.782L13.3139 21.8487C13.2666 21.8754 13.2218 21.9061 13.1799 21.9405L9.80008 24.7215L8.74378 24.7217C8.42373 24.7267 8.1337 24.9088 7.98685 25.1968C7.91274 25.3411 7.87947 25.5028 7.89063 25.6646C7.90179 25.8265 7.95696 25.9821 8.05017 26.1149L9.03701 27.5197L6.89545 26.7006ZM17.1068 34.0006L13.6476 37.3126C13.5535 37.4028 13.4793 37.5116 13.4295 37.6321C13.3797 37.7526 13.3555 37.8821 13.3585 38.0124L13.3978 39.6772L12.4918 38.5095L12.6407 33.447C12.6456 33.28 12.6058 33.1148 12.5255 32.9684L11.3827 30.8924L12.3944 29.3751C12.4758 29.2527 12.6022 29.1673 12.7462 29.1376C12.8902 29.1078 13.0402 29.1361 13.1635 29.2162L17.6142 32.0939L17.1068 34.0006ZM16.0743 12.7522L16.5828 13.1375V17.7965C16.5828 18.3142 17.0042 18.7354 17.5222 18.7354C17.7035 18.7354 17.8806 18.6822 18.0343 18.5816L21.2546 16.4761C21.4556 16.3451 21.5985 16.1418 21.6537 15.9083L22.7277 11.3974C22.7671 11.2324 22.761 11.0599 22.71 10.8982C22.6591 10.7365 22.5651 10.5916 22.4383 10.4791L21.4455 9.59655C21.1822 9.36239 20.7934 9.29588 20.4671 9.4295L16.289 11.1388C16.1356 11.2004 16.0014 11.3019 15.9004 11.4328C15.7993 11.5637 15.7351 11.7191 15.7143 11.8832C15.6914 12.047 15.7128 12.2139 15.7761 12.3667C15.8394 12.5195 15.9424 12.6526 16.0743 12.7522ZM20.8176 10.303L21.8081 11.1786L20.7372 15.6852L17.5278 17.7834V13.1376C17.5275 12.9935 17.4941 12.8514 17.4302 12.7222C17.3664 12.5931 17.2738 12.4802 17.1596 12.3924L16.6582 12.009L20.8176 10.303Z" fill="black"/>
</svg>
