<svg width="50" height="50" viewBox="0 0 50 50" fill="none" xmlns="http://www.w3.org/2000/svg">
<g clip-path="url(#clip0_480_10529)">
<path d="M21.4141 26.8673C21.5313 26.9845 21.6798 27.0392 21.8282 27.0392C21.9766 27.0392 22.1251 26.9845 22.2423 26.8673L24.4063 24.7032L27.4845 27.7813L27.4688 27.797C27.2173 28.048 27.018 28.3464 26.8826 28.675C26.7472 29.0035 26.6782 29.3557 26.6798 29.711C26.6798 30.4298 26.961 31.1095 27.4688 31.6251C27.7199 31.8766 28.0183 32.0759 28.3468 32.2113C28.6754 32.3468 29.0275 32.4157 29.3829 32.4142C30.1017 32.4142 30.7814 32.1329 31.297 31.6251L41.3439 21.5782C41.5954 21.3272 41.7947 21.0287 41.9301 20.7002C42.0656 20.3716 42.1345 20.0195 42.133 19.6641C42.133 18.9454 41.8517 18.2657 41.3439 17.7501C40.2892 16.6954 38.5704 16.6954 37.5236 17.7501L37.5001 17.7657L24.3516 4.6172L24.3673 4.60158C24.8751 4.09376 25.1563 3.41407 25.1563 2.68751C25.1563 1.96094 24.8829 1.28907 24.3673 0.781253C23.3438 -0.242188 21.5626 -0.242188 20.5469 0.781253L10.5 10.8282C9.44534 11.8829 9.44534 13.6016 10.5 14.6485C11.0078 15.1563 11.6875 15.4376 12.4141 15.4376C13.1407 15.4376 13.8125 15.1563 14.3282 14.6485L14.3438 14.6329L17.4219 17.711L15.2579 19.8751C15.1481 19.9849 15.0865 20.1339 15.0865 20.2891C15.0865 20.4444 15.1481 20.5933 15.2579 20.7032L16.1016 21.5469L0.929691 36.7111C0.328126 37.3126 0 38.1095 0 38.9533C0 39.797 0.328126 40.5939 0.929691 41.1954C1.53126 41.797 2.32032 42.1251 3.17189 42.1251C4.02345 42.1251 4.81252 41.797 5.41408 41.1954L20.5782 26.0313L21.4141 26.8673ZM39.4298 18.1329C39.8204 18.1329 40.2111 18.2813 40.5158 18.5782C41.1095 19.1719 41.1095 20.1485 40.5158 20.7423L30.461 30.797C29.8829 31.3751 28.8751 31.3751 28.297 30.797C27.7032 30.2032 27.7032 29.2267 28.297 28.6329L28.7267 28.2032L38.3439 18.586C38.6486 18.2813 39.0392 18.1329 39.4298 18.1329ZM11.3282 13.8204C10.7344 13.2266 10.7344 12.25 11.3282 11.6563L21.3751 1.60938C21.6719 1.3125 22.0626 1.16407 22.461 1.16407C22.8516 1.16407 23.2423 1.3125 23.547 1.60938C24.1407 2.20313 24.1407 3.1797 23.547 3.77345L23.1173 4.20314L13.4922 13.8204C12.8985 14.4219 11.9219 14.4219 11.3282 13.8204ZM23.5235 5.44533L36.672 18.5938L28.3126 26.9532L24.8204 23.461C24.8204 23.461 24.8204 23.4532 24.8126 23.4532C24.8048 23.4532 24.8048 23.4532 24.8048 23.4454L18.6563 17.2969V17.2891H18.6485L15.1563 13.7969L23.5235 5.44533ZM18.2422 18.5469L23.5704 23.8751L21.8204 25.6251L16.4922 20.2969L18.2422 18.5469ZM4.57814 40.3673C3.82814 41.1173 2.50782 41.1173 1.75782 40.3673C1.57196 40.1817 1.42451 39.9613 1.32391 39.7187C1.22331 39.476 1.17153 39.2159 1.17153 38.9533C1.17153 38.6906 1.22331 38.4305 1.32391 38.1879C1.42451 37.9452 1.57196 37.7248 1.75782 37.5392L16.9219 22.3751L19.7423 25.1954L4.57814 40.3673ZM46.258 43.4533H44.0861V41.8361C44.0861 39.7736 42.4064 38.0939 40.3517 38.0939H20.3985C18.336 38.0939 16.6563 39.7736 16.6563 41.8361V43.4533H14.4844C12.4219 43.4533 10.75 45.133 10.75 47.1955V49.3986C10.75 49.7189 11.0157 49.9845 11.336 49.9845H49.4142C49.7345 49.9845 50.0002 49.7189 50.0002 49.3986V47.1955C50.0002 45.133 48.3205 43.4533 46.258 43.4533ZM17.836 41.8361C17.836 40.422 18.9844 39.2658 20.4063 39.2658H40.3595C41.7736 39.2658 42.922 40.4142 42.922 41.8361V43.4533H17.836V41.8361ZM48.8283 48.8127H11.9219V47.1955C11.9219 46.5151 12.1916 45.8625 12.672 45.3807C13.1523 44.8989 13.8041 44.6272 14.4844 44.6251H46.258C47.672 44.6251 48.8283 45.7736 48.8283 47.1955V48.8127Z" fill="black"/>
</g>
<defs>
<clipPath id="clip0_480_10529">
<rect width="50" height="50" fill="white"/>
</clipPath>
</defs>
</svg>
