<svg width="50" height="50" viewBox="0 0 50 50" fill="none" xmlns="http://www.w3.org/2000/svg">
<g clip-path="url(#clip0_480_10532)">
<path d="M0.611771 37.5624C0.713083 37.5624 0.812879 37.5378 0.902482 37.4905C3.20817 36.2757 5.47885 34.5208 7.66575 32.2808V48.757H0.726179C0.56037 48.757 0.401351 48.8228 0.284106 48.9401C0.166861 49.0573 0.100993 49.2163 0.100993 49.3821C0.100993 49.548 0.166861 49.707 0.284106 49.8242C0.401351 49.9415 0.56037 50.0073 0.726179 50.0073H49.3757C49.5415 50.0073 49.7005 49.9415 49.8177 49.8242C49.935 49.707 50.0009 49.548 50.0009 49.3821C50.0009 49.2163 49.935 49.0573 49.8177 48.9401C49.7005 48.8228 49.5415 48.757 49.3757 48.757H42.2623V32.3002C44.4423 34.5308 46.7074 36.2789 49.0068 37.4905C49.1536 37.5677 49.325 37.5836 49.4834 37.5344C49.5618 37.5101 49.6347 37.4706 49.6978 37.4181C49.761 37.3656 49.8132 37.3012 49.8514 37.2285C49.8897 37.1559 49.9133 37.0764 49.9208 36.9946C49.9284 36.9128 49.9197 36.8304 49.8954 36.752C49.8711 36.6735 49.8315 36.6007 49.779 36.5375C49.7266 36.4744 49.6621 36.4222 49.5895 36.3839C47.3269 35.1923 45.0906 33.4443 42.9338 31.1949C43.9753 30.7035 44.703 29.65 44.703 28.4221C44.703 26.7279 43.3276 25.35 41.6371 25.35C39.9466 25.35 38.5712 26.7279 38.5712 28.4221C38.5722 29.0137 38.744 29.5925 39.0659 30.0888C39.3879 30.5851 39.8463 30.9778 40.3861 31.2199C39.0476 32.5996 33.1365 38.2032 25.2529 38.4351C19.7969 38.5958 14.4953 36.172 9.49317 31.2461C10.0457 31.009 10.5167 30.6152 10.8478 30.1133C11.1789 29.6114 11.3557 29.0234 11.3562 28.4221C11.3562 26.7279 9.98081 25.35 8.29093 25.35C6.60105 25.35 5.22439 26.7279 5.22439 28.4221C5.22439 29.645 5.94711 30.6947 6.98179 31.1886C4.8224 33.4405 2.58361 35.1917 0.320434 36.3839C0.196755 36.449 0.0984419 36.5536 0.0411931 36.6811C-0.0160556 36.8086 -0.0289395 36.9516 0.00459929 37.0872C0.0381381 37.2229 0.116165 37.3434 0.226222 37.4295C0.336279 37.5157 0.47202 37.5624 0.611771 37.5624ZM39.8216 28.4221C39.8214 27.94 40.0124 27.4775 40.3528 27.136C40.6931 26.7945 41.155 26.6018 41.6371 26.6004C42.638 26.6004 43.4527 27.4175 43.4527 28.4221C43.4527 29.4268 42.638 30.2433 41.6371 30.2433C41.155 30.242 40.6932 30.0495 40.3528 29.7081C40.0125 29.3667 39.8214 28.9042 39.8216 28.4221ZM25.3029 39.6849C33.2765 39.4454 39.1676 34.2251 41.0126 32.3727V48.757H8.91675V32.4315C13.9182 37.2485 19.2348 39.693 24.7408 39.693C24.9278 39.693 25.1153 39.6905 25.3029 39.6849ZM8.29156 26.5997C9.29186 26.5997 10.1065 27.4175 10.1065 28.4221C10.1065 29.4268 9.29186 30.2433 8.29156 30.2433C7.29001 30.2433 6.47539 29.4262 6.47539 28.4221C6.47539 27.4181 7.29001 26.5997 8.29156 26.5997ZM33.8673 23.4119C34.0331 23.4119 34.1921 23.346 34.3094 23.2288C34.4266 23.1116 34.4925 22.9525 34.4925 22.7867V0.617618C34.4925 0.451808 34.4266 0.29279 34.3094 0.175545C34.1921 0.0582994 34.0331 -0.00756836 33.8673 -0.00756836H16.2352C16.0694 -0.00756836 15.9103 0.0582994 15.7931 0.175545C15.6759 0.29279 15.61 0.451808 15.61 0.617618V22.7867C15.61 22.9525 15.6759 23.1116 15.7931 23.2288C15.9103 23.346 16.0694 23.4119 16.2352 23.4119H33.8673ZM16.8604 1.2428H33.2421V22.1615H16.8604V1.2428Z" fill="black"/>
<path d="M30.2972 3.62598H19.8041C19.6383 3.62598 19.4793 3.69184 19.362 3.80909C19.2448 3.92633 19.1789 4.08535 19.1789 4.25116V19.1537C19.1789 19.3195 19.2448 19.4786 19.362 19.5958C19.4793 19.713 19.6383 19.7789 19.8041 19.7789H30.2972C30.463 19.7789 30.6221 19.713 30.7393 19.5958C30.8566 19.4786 30.9224 19.3195 30.9224 19.1537V4.25116C30.9224 4.08535 30.8566 3.92633 30.7393 3.80909C30.6221 3.69184 30.463 3.62598 30.2972 3.62598ZM29.672 18.5285H20.4293V4.87635H29.672V18.5285ZM49.3379 19.6307C49.5037 19.6307 49.6627 19.5649 49.78 19.4476C49.8972 19.3304 49.9631 19.1714 49.9631 19.0056V4.39996C49.9631 4.23415 49.8972 4.07513 49.78 3.95788C49.6627 3.84064 49.5037 3.77477 49.3379 3.77477H37.7213C37.5555 3.77477 37.3965 3.84064 37.2792 3.95788C37.162 4.07513 37.0961 4.23415 37.0961 4.39996V19.0056C37.0961 19.1714 37.162 19.3304 37.2792 19.4476C37.3965 19.5649 37.5555 19.6307 37.7213 19.6307H49.3379ZM38.3465 5.02514H48.7121V18.3804H38.3465V5.02514ZM0.610889 19.6307H12.2275C12.3933 19.6307 12.5523 19.5649 12.6695 19.4476C12.7868 19.3304 12.8527 19.1714 12.8527 19.0056V4.39996C12.8527 4.23415 12.7868 4.07513 12.6695 3.95788C12.5523 3.84064 12.3933 3.77477 12.2275 3.77477H0.611514C0.445705 3.77477 0.286686 3.84064 0.169441 3.95788C0.0521959 4.07513 -0.0136719 4.23415 -0.0136719 4.39996V19.0056C-0.0136719 19.1714 0.0521959 19.3304 0.169441 19.4476C0.286686 19.5649 0.445705 19.6307 0.611514 19.6307H0.610889ZM1.23608 5.02514H11.6023V18.3804H1.2367L1.23608 5.02514Z" fill="black"/>
<path d="M8.89633 7.26587H3.75605C3.59024 7.26587 3.43122 7.33174 3.31397 7.44898C3.19673 7.56623 3.13086 7.72525 3.13086 7.89106V15.514C3.13086 15.6798 3.19673 15.8388 3.31397 15.956C3.43122 16.0733 3.59024 16.1391 3.75605 16.1391H8.89633C9.06214 16.1391 9.22115 16.0733 9.3384 15.956C9.45565 15.8388 9.52151 15.6798 9.52151 15.514V7.89106C9.52151 7.72525 9.45565 7.56623 9.3384 7.44898C9.22115 7.33174 9.06214 7.26587 8.89633 7.26587ZM8.27114 14.8888H4.38123V8.51624H8.27114V14.8888ZM46.0993 7.26587H40.9584C40.7926 7.26587 40.6335 7.33174 40.5163 7.44898C40.3991 7.56623 40.3332 7.72525 40.3332 7.89106V15.514C40.3332 15.6798 40.3991 15.8388 40.5163 15.956C40.6335 16.0733 40.7926 16.1391 40.9584 16.1391H46.0993C46.2651 16.1391 46.4241 16.0733 46.5414 15.956C46.6586 15.8388 46.7245 15.6798 46.7245 15.514V7.89106C46.7245 7.72525 46.6586 7.56623 46.5414 7.44898C46.4241 7.33174 46.2651 7.26587 46.0993 7.26587ZM45.4741 14.8888H41.5836V8.51624H45.4741V14.8888Z" fill="black"/>
</g>
<defs>
<clipPath id="clip0_480_10532">
<rect width="50" height="50" fill="white"/>
</clipPath>
</defs>
</svg>
