<svg width="172" height="43" viewBox="0 0 172 43" fill="none" xmlns="http://www.w3.org/2000/svg">
<g clip-path="url(#clip0_480_10477)">
<path d="M0 10.7633C6.09149 10.7633 10.9547 5.90355 10.9547 0H21.6424C21.6424 11.8564 11.9111 21.3935 0 21.3935V10.7633Z" fill="black"/>
<path d="M0 21.3936C11.9111 21.3936 21.6424 30.9306 21.6424 42.787H10.9547C10.9547 36.8835 6.09149 32.0237 0 32.0237V21.3936Z" fill="black"/>
<path d="M21.6426 10.7534V21.4999L43.4186 10.7534V0.106445L21.6426 10.7534Z" fill="black"/>
<path d="M21.6426 21.6064V32.2534L43.4186 42.9999V32.2534L21.6426 21.6064Z" fill="black"/>
<path d="M58.1172 0H60.1364V7.1328L66.6105 0H69.1247L63.7594 5.78417L69.7383 14.1679H67.3227L62.3937 7.2502L60.1364 9.71264V14.1679H58.1172V0Z" fill="black"/>
<path d="M71.2871 0V8.40348C71.2871 12.8203 73.0294 14.4225 77.0081 14.4225C81.185 14.4225 82.7888 12.3902 82.7888 8.2476V0H80.7695V8.40348C80.7695 11.1984 79.7595 12.7029 77.0081 12.7029C74.2567 12.7029 73.3063 11.4135 73.3063 8.61855V0H71.2871Z" fill="black"/>
<path fill-rule="evenodd" clip-rule="evenodd" d="M85.3848 0H89.8785C93.383 0 95.8374 0.761621 95.8374 4.27968C95.8374 7.79774 93.383 8.55935 89.8785 8.55935H87.404V14.1679H85.3848V0ZM87.404 6.82006H90.0368C92.1556 6.82006 93.7784 6.58526 93.7784 4.27968C93.7784 1.9741 92.1556 1.68109 90.0368 1.68109H87.404V6.82006Z" fill="black"/>
<path d="M99.779 0H97.7598V14.1679H99.779V0Z" fill="black"/>
<path d="M108.79 14.1679H106.77V1.71957H102.098V0H113.461V1.71957H108.79V14.1679Z" fill="black"/>
<path d="M60.1364 17.978H58.1172V32.1459H60.1364V27.6907L62.3937 25.2282L67.3227 32.1459H69.7383L63.7594 23.7632L69.1247 17.978H66.6105L60.1364 25.1118V17.978Z" fill="black"/>
<path fill-rule="evenodd" clip-rule="evenodd" d="M76.2337 17.9795H78.5696L83.9738 32.1474H81.7962L80.6675 29.0792H74.0759L72.9673 32.1474H70.9082L76.2337 17.9795ZM77.3423 19.9921L74.6896 27.3794H80.034L77.3423 19.9921Z" fill="black"/>
<path fill-rule="evenodd" clip-rule="evenodd" d="M93.0564 25.8552C94.8186 25.3856 95.9073 24.3112 95.9073 22.0638C95.9073 18.6632 93.413 17.9795 89.9285 17.9795H85.375V32.1474H87.3942V26.1866H89.9285C90.304 26.1866 90.6407 26.1866 91.0172 26.1679L94.1253 32.1474H96.3825L93.0564 25.8552ZM90.0868 24.5065H87.3942V19.6596H90.0868C92.2046 19.6596 93.8284 19.9141 93.8284 22.1023C93.8284 24.2905 92.2046 24.5065 90.0868 24.5065Z" fill="black"/>
<path d="M103.404 32.1459H101.385V19.6986H96.7129V17.978H108.076V19.6986H103.404V32.1459Z" fill="black"/>
<path d="M112.31 17.978H110.291V32.1459H112.31V17.978Z" fill="black"/>
<path d="M126.96 17.978V32.1459H124.01L117.438 20.0498V32.1459H115.418V17.978H118.388L124.94 30.0357V17.978H126.96Z" fill="black"/>
<path d="M129.334 17.9805V26.382C129.334 30.7988 131.076 32.401 135.054 32.401C139.232 32.401 140.835 30.3687 140.835 26.2261V17.9795H138.816V26.383C138.816 29.1769 137.806 30.6824 135.054 30.6824C132.303 30.6824 131.353 29.393 131.353 26.598V17.9805H129.334Z" fill="black"/>
<path d="M142.818 29.8984H145.095V32.1458H142.818V29.8984Z" fill="black"/>
<path fill-rule="evenodd" clip-rule="evenodd" d="M155.26 25.8552C157.022 25.3856 158.11 24.3112 158.11 22.0638C158.11 18.6632 155.616 17.9795 152.132 17.9795H147.578V32.1474H149.599V26.1866H152.132C152.509 26.1866 152.845 26.1866 153.221 26.1679L156.329 32.1474H158.586L155.26 25.8552ZM152.494 24.5065H149.801V19.6596H152.494C154.611 19.6596 156.235 19.9141 156.235 22.1023C156.235 24.2905 154.611 24.5065 152.494 24.5065Z" fill="black"/>
<path d="M160.498 26.382V17.9805H162.518V26.598C162.518 29.393 163.468 30.6824 166.219 30.6824C168.97 30.6824 169.981 29.1769 169.981 26.383V17.9795H172V26.2261C172 30.3687 170.397 32.401 166.219 32.401C162.24 32.401 160.498 30.7988 160.498 26.382Z" fill="black"/>
</g>
<defs>
<clipPath id="clip0_480_10477">
<rect width="172" height="43" fill="white"/>
</clipPath>
</defs>
</svg>
